/vscmnt/brussel_pixiu_data/_data_brussel/112/vsc11236/PredSimResults/SUBJ10opt3D/weighted-LRposFixed/trackIG/worker_03.mot
version=1
nRows=4
nColumns=50
inDegrees=yes
endheader
                time	         pelvis_tilt	         pelvis_list	     pelvis_rotation	           pelvis_tx	           pelvis_ty	           pelvis_tz	       hip_flexion_r	     hip_adduction_r	      hip_rotation_r	        knee_angle_r	       ankle_angle_r	         mtp_angle_r	       hip_flexion_l	     hip_adduction_l	      hip_rotation_l	        knee_angle_l	       ankle_angle_l	         mtp_angle_l	    lumbar_extension	      lumbar_bending	     lumbar_rotation	 ercspn_r/activation	 intobl_r/activation	 extobl_r/activation	    abd_r/activation	    add_r/activation	hamstrings_r/activation	bifemsh_r/activation	glut_max_r/activation	iliopsoas_r/activation	rect_fem_r/activation	  vasti_r/activation	gastroc_r/activation	 soleus_r/activation	tib_ant_r/activation	 ercspn_l/activation	 intobl_l/activation	 extobl_l/activation	    abd_l/activation	    add_l/activation	hamstrings_l/activation	bifemsh_l/activation	glut_max_l/activation	iliopsoas_l/activation	rect_fem_l/activation	  vasti_l/activation	gastroc_l/activation	 soleus_l/activation	tib_ant_l/activation	
          1.74908105	         -4.71712562	          0.91816112	         -6.66978495	          1.95897077	          0.82117399	          0.01339131	        -15.07157869	         -0.43898172	         -0.15695074	         -6.57513694	          8.93410566	         26.98345896	         31.17874187	         -1.40354921	         -5.59073984	         -7.46665613	          2.96054134	          0.26196233	         -6.23088077	          0.37026257	          7.15015350	          0.09788249	          0.00999999	          0.00999999	          0.05894523	          0.01000000	          0.01439906	          0.22119174	          0.02034768	          0.48875656	          0.00999999	          0.00999999	          0.32907231	          0.26549378	          0.02343806	          0.10635786	          0.14278336	          0.00999999	          0.00999999	          0.22058451	          0.11981292	          0.18656761	          0.05946165	          0.10507253	          0.00999999	          0.00999999	          0.01703673	          0.01295747	          0.29674310	
          1.76074159	         -4.75094274	          0.91944028	         -6.80355019	          1.97477808	          0.81974157	          0.01302395	        -15.08049680	         -0.60248435	         -0.47063898	         -8.46487114	          8.29759649	         28.72086961	         31.12523819	         -1.27727053	         -5.28982780	         -9.24162326	          2.59003687	          0.24713961	         -5.97760164	         -0.14874069	          7.48721093	          0.11507296	          0.00999999	          0.00999999	          0.04935372	          0.02977440	          0.01762911	          0.18519961	          0.01703672	          0.40922653	          0.00999999	          0.00999999	          0.28984620	          0.25390088	          0.01962424	          0.08905140	          0.11954977	          0.00999999	          0.00999999	          0.18469120	          0.10109735	          0.15620949	          0.11007644	          0.08797522	          0.00999999	          0.00999999	          0.01426453	          0.01084904	          0.36596761	
          1.77240213	         -4.77554407	          0.93720680	         -6.89930874	          1.99082742	          0.81863287	          0.01252223	        -14.92250977	         -0.79770266	         -0.81277069	        -10.66784633	          7.47244212	         30.43853347	         30.88927045	         -1.14074475	         -5.04114097	        -10.71140253	          2.11787515	          0.23750245	         -5.70856585	         -0.67883458	          7.79223421	          0.12675391	          0.00999999	          0.00999999	          0.04132292	          0.02492953	          0.01476053	          0.15506409	          0.01426452	          0.34263754	          0.00999999	          0.00999999	          0.24268268	          0.23682380	          0.01643100	          0.10380249	          0.10009674	          0.00999999	          0.05345386	          0.17325582	          0.08766349	          0.13079122	          0.12613376	          0.07365997	          0.00999999	          0.00999999	          0.01194342	          0.00999999	          0.42484224	
          1.78406267	         -4.79197080	          0.95045598	         -6.95708221	          2.00690916	          0.81794209	          0.01189358	        -14.55511279	         -1.00258683	         -1.18591073	        -13.22312871	          6.44041928	         32.03380219	         30.57817015	         -1.00383427	         -4.89774694	        -12.06553167	          1.65892824	          0.22411016	         -5.44727238	         -1.19672487	          8.05974118	          0.15493682	          0.00999999	          0.00999999	          0.03459889	          0.02332380	          0.01998601	          0.12983220	          0.01194341	          0.28688386	          0.00999999	          0.00999999	          0.20319357	          0.21662956	          0.01375736	          0.10860833	          0.08380909	          0.00999999	          0.09558984	          0.21025073	          0.07446614	          0.10950899	          0.13220430	          0.06167408	          0.00999999	          0.00999999	          0.01000000	          0.00999999	          0.45596027	
